<?xml version="1.0" encoding="UTF-8"?><svg id="Layer_1" xmlns="http://www.w3.org/2000/svg" viewBox="0 0 591.28 538.09"><defs><style>.cls-1{fill:#fff;}.cls-2{fill:none;stroke:#29abe2;stroke-linecap:round;stroke-miterlimit:10;stroke-width:20px;}.cls-3{fill:#29abe2;}</style></defs><path class="cls-3" d="M464.26,217.18c-19.06-49.76-67.28-85.09-123.76-85.09s-99.95,31.95-120.76,77.89l-19.69,30.1c-25.88,39.56-70.17,63.15-117.43,62.55l-82.62-1.04c0,130.62,105.88,236.5,236.5,236.5,120.23,0,219.49-89.7,234.53-205.83l95.82-68.17-102.59-46.91Zm-103.01,17.41c-15.05,0-27.25-12.2-27.25-27.25s12.2-27.25,27.25-27.25,27.25,12.2,27.25,27.25-12.2,27.25-27.25,27.25Z"/><path class="cls-2" d="M519.52,179.88c-10.13-70.38-80.7-118.35-157.8-107.26"/><path class="cls-2" d="M581.28,157.29C565.88,60.49,467.61-4.19,361.57,12.67"/><circle class="cls-1" cx="361.25" cy="207.38" r="27.25"/></svg>