<svg xmlns="http://www.w3.org/2000/svg" xmlns:xlink="http://www.w3.org/1999/xlink" zoomAndPan="magnify" preserveAspectRatio="xMidYMid meet" version="1.0" viewBox="140.24 558.29 728.24 139.45"><defs><g/><clipPath id="0a1a2d399e"><rect x="0" width="741" y="0" height="223"/></clipPath></defs><g transform="matrix(1, 0, 0, 1, 134, 518)"><g clip-path="url(#0a1a2d399e)"><g fill="#38b6ff" fill-opacity="1"><g transform="translate(0.427873, 177.800671)"><g><path d="M 81.453125 -40.53125 L 81.84375 -66.90625 C 81.84375 -68.71875 83.71875 -69.914062 87.46875 -70.5 C 91.21875 -71.082031 94.320312 -71.375 96.78125 -71.375 L 104.34375 -70.796875 C 109.257812 -70.015625 111.71875 -68.65625 111.71875 -66.71875 L 110.9375 -6.015625 C 108.351562 -4.203125 103.148438 -2.421875 95.328125 -0.671875 C 87.503906 1.066406 78.550781 1.9375 68.46875 1.9375 C 49.71875 1.9375 34.585938 -4.140625 23.078125 -16.296875 C 11.566406 -28.453125 5.8125 -46.296875 5.8125 -69.828125 C 5.8125 -89.867188 11.4375 -106.160156 22.6875 -118.703125 C 33.9375 -131.242188 49.519531 -137.515625 69.4375 -137.515625 C 78.488281 -137.515625 86.664062 -136.640625 93.96875 -134.890625 C 101.269531 -133.148438 106.28125 -130.789062 109 -127.8125 C 109.132812 -126.78125 109.203125 -124.84375 109.203125 -122 C 109.203125 -119.15625 108.226562 -115.113281 106.28125 -109.875 C 104.34375 -104.632812 102.144531 -100.722656 99.6875 -98.140625 C 97.226562 -95.554688 95.445312 -94.265625 94.34375 -94.265625 C 93.25 -94.265625 92.085938 -94.75 90.859375 -95.71875 C 89.640625 -96.6875 87.21875 -97.71875 83.59375 -98.8125 C 79.96875 -99.914062 76.476562 -100.46875 73.125 -100.46875 C 65.101562 -100.46875 58.601562 -97.878906 53.625 -92.703125 C 48.644531 -87.535156 46.15625 -79.519531 46.15625 -68.65625 C 46.15625 -57.800781 48.707031 -49.5625 53.8125 -43.9375 C 58.925781 -38.3125 64.8125 -35.5 71.46875 -35.5 C 78.125 -35.5 81.453125 -37.175781 81.453125 -40.53125 Z M 81.453125 -40.53125 "/></g></g></g><g fill="#38b6ff" fill-opacity="1"><g transform="translate(120.855686, 177.800671)"><g><path d="M 7.765625 -95.8125 C 7.765625 -97.238281 13.320312 -97.953125 24.4375 -97.953125 C 35.5625 -97.953125 41.125 -97.238281 41.125 -95.8125 L 41.125 -39.171875 C 41.125 -32.710938 43.191406 -29.484375 47.328125 -29.484375 C 50.429688 -29.484375 53.921875 -30.835938 57.796875 -33.546875 L 57.796875 -95.8125 C 57.796875 -97.101562 63.289062 -97.75 74.28125 -97.75 C 85.269531 -97.75 90.765625 -97.101562 90.765625 -95.8125 L 90.765625 -32.203125 L 95.8125 -32.203125 C 100.207031 -32.203125 102.40625 -28 102.40625 -19.59375 C 102.40625 -15.320312 101.5 -10.988281 99.6875 -6.59375 C 97.101562 -0.90625 93.613281 1.9375 89.21875 1.9375 C 80.550781 1.9375 74.148438 -1.617188 70.015625 -8.734375 L 69.828125 -8.53125 C 61.929688 -1.550781 53.460938 1.9375 44.421875 1.9375 C 31.878906 1.9375 22.632812 -1.195312 16.6875 -7.46875 C 10.738281 -13.738281 7.765625 -24.113281 7.765625 -38.59375 Z M 7.765625 -95.8125 "/></g></g></g><g fill="#38b6ff" fill-opacity="1"><g transform="translate(226.351233, 177.800671)"><g><path d="M 16.296875 -71.1875 L 6.78125 -71.1875 C 4.84375 -71.1875 3.875 -75.484375 3.875 -84.078125 C 3.875 -92.671875 4.84375 -96.96875 6.78125 -96.96875 L 16.296875 -96.96875 L 16.296875 -101.25 C 16.296875 -114.945312 19.171875 -124.414062 24.921875 -129.65625 C 30.671875 -134.894531 38.71875 -137.515625 49.0625 -137.515625 C 59.414062 -137.515625 68.535156 -135.640625 76.421875 -131.890625 C 77.453125 -131.503906 77.96875 -130.113281 77.96875 -127.71875 C 77.96875 -125.320312 76.867188 -121.472656 74.671875 -116.171875 C 72.472656 -110.867188 70.597656 -107.832031 69.046875 -107.0625 C 64.648438 -109.78125 60.125 -111.140625 55.46875 -111.140625 C 50.425781 -111.140625 47.90625 -107.773438 47.90625 -101.046875 L 47.90625 -96.96875 L 64 -96.96875 C 66.332031 -96.96875 67.5 -92.832031 67.5 -84.5625 C 67.5 -75.507812 66.007812 -70.984375 63.03125 -70.984375 L 50.625 -70.984375 L 50.625 -2.328125 C 50.625 -0.773438 44.898438 0 33.453125 0 C 22.015625 0 16.296875 -0.773438 16.296875 -2.328125 Z M 16.296875 -71.1875 "/></g></g></g><g fill="#38b6ff" fill-opacity="1"><g transform="translate(299.073327, 177.800671)"><g><path d="M 16.296875 -71.1875 L 6.78125 -71.1875 C 4.84375 -71.1875 3.875 -75.484375 3.875 -84.078125 C 3.875 -92.671875 4.84375 -96.96875 6.78125 -96.96875 L 16.296875 -96.96875 L 16.296875 -101.25 C 16.296875 -114.945312 19.171875 -124.414062 24.921875 -129.65625 C 30.671875 -134.894531 38.71875 -137.515625 49.0625 -137.515625 C 59.414062 -137.515625 68.535156 -135.640625 76.421875 -131.890625 C 77.453125 -131.503906 77.96875 -130.113281 77.96875 -127.71875 C 77.96875 -125.320312 76.867188 -121.472656 74.671875 -116.171875 C 72.472656 -110.867188 70.597656 -107.832031 69.046875 -107.0625 C 64.648438 -109.78125 60.125 -111.140625 55.46875 -111.140625 C 50.425781 -111.140625 47.90625 -107.773438 47.90625 -101.046875 L 47.90625 -96.96875 L 64 -96.96875 C 66.332031 -96.96875 67.5 -92.832031 67.5 -84.5625 C 67.5 -75.507812 66.007812 -70.984375 63.03125 -70.984375 L 50.625 -70.984375 L 50.625 -2.328125 C 50.625 -0.773438 44.898438 0 33.453125 0 C 22.015625 0 16.296875 -0.773438 16.296875 -2.328125 Z M 16.296875 -71.1875 "/></g></g></g><g fill="#000000" fill-opacity="1"><g transform="translate(371.806656, 177.800671)"><g/></g></g><g fill="#ff914d" fill-opacity="1"><g transform="translate(408.285636, 177.800671)"><g><path d="M 115.203125 -3.296875 C 115.203125 -1.097656 108.671875 0 95.609375 0 C 82.554688 0 76.03125 -1.097656 76.03125 -3.296875 L 76.03125 -47.90625 L 48.875 -47.90625 L 48.875 -3.296875 C 48.875 -1.097656 42.34375 0 29.28125 0 C 16.226562 0 9.703125 -1.097656 9.703125 -3.296875 L 9.703125 -131.890625 C 9.703125 -134.609375 16.226562 -135.96875 29.28125 -135.96875 C 42.34375 -135.96875 48.875 -134.609375 48.875 -131.890625 L 48.875 -86.3125 L 76.03125 -86.3125 L 76.03125 -131.5 C 76.03125 -133.3125 79.265625 -134.601562 85.734375 -135.375 C 89.085938 -135.632812 92.382812 -135.765625 95.625 -135.765625 L 105.515625 -135.375 C 111.972656 -134.601562 115.203125 -133.3125 115.203125 -131.5 Z M 115.203125 -3.296875 "/></g></g></g><g fill="#ff914d" fill-opacity="1"><g transform="translate(533.173741, 177.800671)"><g><path d="M 7.765625 -95.8125 C 7.765625 -97.238281 13.320312 -97.953125 24.4375 -97.953125 C 35.5625 -97.953125 41.125 -97.238281 41.125 -95.8125 L 41.125 -39.171875 C 41.125 -32.710938 43.191406 -29.484375 47.328125 -29.484375 C 50.429688 -29.484375 53.921875 -30.835938 57.796875 -33.546875 L 57.796875 -95.8125 C 57.796875 -97.101562 63.289062 -97.75 74.28125 -97.75 C 85.269531 -97.75 90.765625 -97.101562 90.765625 -95.8125 L 90.765625 -32.203125 L 95.8125 -32.203125 C 100.207031 -32.203125 102.40625 -28 102.40625 -19.59375 C 102.40625 -15.320312 101.5 -10.988281 99.6875 -6.59375 C 97.101562 -0.90625 93.613281 1.9375 89.21875 1.9375 C 80.550781 1.9375 74.148438 -1.617188 70.015625 -8.734375 L 69.828125 -8.53125 C 61.929688 -1.550781 53.460938 1.9375 44.421875 1.9375 C 31.878906 1.9375 22.632812 -1.195312 16.6875 -7.46875 C 10.738281 -13.738281 7.765625 -24.113281 7.765625 -38.59375 Z M 7.765625 -95.8125 "/></g></g></g><g fill="#ff914d" fill-opacity="1"><g transform="translate(638.669287, 177.800671)"><g><path d="M 9.703125 -135.1875 C 9.703125 -136.738281 15.289062 -137.515625 26.46875 -137.515625 C 37.65625 -137.515625 43.25 -136.671875 43.25 -134.984375 L 43.25 -97.359375 C 48.8125 -98.398438 52.753906 -98.921875 55.078125 -98.921875 C 82.234375 -98.921875 95.8125 -83.335938 95.8125 -52.171875 C 95.8125 -34.847656 91.640625 -21.5 83.296875 -12.125 C 74.960938 -2.75 63.132812 1.9375 47.8125 1.9375 C 32.488281 1.9375 19.785156 -1.488281 9.703125 -8.34375 Z M 49.65625 -68.65625 C 47.457031 -68.65625 45.320312 -67.945312 43.25 -66.53125 L 43.25 -29.484375 C 45.0625 -28.703125 46.96875 -28.3125 48.96875 -28.3125 C 50.976562 -28.3125 53.015625 -29.085938 55.078125 -30.640625 C 58.703125 -33.234375 60.515625 -39.25 60.515625 -48.6875 C 60.515625 -62 56.894531 -68.65625 49.65625 -68.65625 Z M 49.65625 -68.65625 "/></g></g></g></g></g></svg>